<svg width="132" height="30" viewBox="0 0 132 30" fill="none" xmlns="http://www.w3.org/2000/svg">
<path fill-rule="evenodd" clip-rule="evenodd" d="M61.7884 9.27915C62.1026 8.95621 62.3495 8.57396 62.5145 8.15468C62.6795 7.7354 62.7594 7.28747 62.7496 6.83699C62.7397 6.38651 62.6403 5.94249 62.4572 5.53081C62.274 5.11913 62.0108 4.74802 61.6827 4.4391C59.6078 2.47222 57.0047 1.15263 54.1917 0.641708C51.3787 0.130785 48.4777 0.450674 45.8437 1.56226C43.2096 2.67384 40.9565 4.52893 39.36 6.90067C37.7635 9.27241 36.8927 12.058 36.8542 14.9167C36.8927 17.7755 37.7635 20.5611 39.36 22.9328C40.9565 25.3046 43.2096 27.1596 45.8437 28.2712C48.4777 29.3828 51.3787 29.7027 54.1917 29.1918C57.0047 28.6809 59.6078 27.3613 61.6827 25.3944C62.0108 25.0855 62.274 24.7144 62.4572 24.3027C62.6403 23.891 62.7397 23.447 62.7496 22.9965C62.7594 22.546 62.6795 22.0981 62.5145 21.6788C62.3495 21.2595 62.1026 20.8773 61.7884 20.5543C61.1494 19.8989 60.2784 19.5208 59.3632 19.5014C58.448 19.482 57.5618 19.8229 56.8955 20.4506C55.4175 21.8453 53.4544 22.6096 51.4224 22.5812C49.3904 22.5529 47.4494 21.7343 46.0108 20.2989C45.3029 19.5927 44.7413 18.7538 44.3581 17.8303C43.9749 16.9067 43.7777 15.9166 43.7777 14.9167C43.7777 13.9168 43.9749 12.9268 44.3581 12.0032C44.7413 11.0797 45.3029 10.2408 46.0108 9.53456C47.4494 8.09919 49.3904 7.28056 51.4224 7.25225C53.4544 7.22393 55.4175 7.98816 56.8955 9.38288C57.5618 10.0107 58.4481 10.3516 59.3634 10.332C60.2787 10.3124 61.1496 9.93396 61.7884 9.27817V9.27915ZM80.6786 0.405073C76.8092 0.38736 73.0906 1.90521 70.3388 4.62565C67.587 7.3461 66.0266 11.047 66 14.9164C66 18.8094 67.5464 22.543 70.2992 25.2958C73.052 28.0486 76.7856 29.5951 80.6786 29.5951C84.5717 29.5951 88.3052 28.0486 91.058 25.2958C93.8108 22.543 95.3573 18.8094 95.3573 14.9164C95.3307 11.047 93.7703 7.3461 91.0185 4.62565C88.2667 1.90521 84.5481 0.38736 80.6786 0.405073ZM80.6786 22.5806C79.1664 22.5635 77.693 22.0993 76.444 21.2466C75.1949 20.3939 74.226 19.1908 73.6592 17.7887C73.0924 16.3866 72.953 14.8481 73.2586 13.367C73.5642 11.8858 74.3012 10.5282 75.3767 9.46494C76.4522 8.40167 77.8181 7.68031 79.3026 7.39165C80.7872 7.10299 82.324 7.25992 83.7195 7.8427C85.1151 8.42549 86.307 9.40807 87.1454 10.6668C87.9837 11.9255 88.431 13.4041 88.4309 14.9164C88.4252 15.9287 88.22 16.9299 87.8273 17.8629C87.4346 18.7959 86.862 19.6424 86.1421 20.3541C85.4222 21.0658 84.5693 21.6287 83.6318 22.0108C82.6944 22.3928 81.6909 22.5864 80.6786 22.5806ZM115.033 0.407379C110.655 0.389137 106.448 2.10751 103.336 5.1858C100.223 8.26408 98.4573 12.4511 98.4265 16.8289C98.4234 18.9884 98.8515 21.1267 99.6858 23.1185C100.52 25.1103 101.744 26.9155 103.285 28.428C103.938 29.0694 104.816 29.4288 105.732 29.4288C106.647 29.4288 107.525 29.0694 108.178 28.428C108.499 28.1119 108.754 27.7351 108.928 27.3194C109.103 26.9038 109.192 26.4576 109.192 26.007C109.192 25.5563 109.103 25.1102 108.928 24.6946C108.754 24.2789 108.499 23.9021 108.178 23.586C107.28 22.7026 106.567 21.6493 106.08 20.4874C105.593 19.3256 105.342 18.0784 105.342 16.8186C105.342 15.5589 105.593 14.3117 106.08 13.1498C106.567 11.988 107.28 10.9346 108.178 10.0513C110.004 8.25513 112.462 7.24852 115.023 7.24852C117.584 7.24852 120.043 8.25513 121.868 10.0513C122.766 10.9346 123.48 11.988 123.967 13.1498C124.454 14.3117 124.704 15.5589 124.704 16.8186C124.704 18.0784 124.454 19.3256 123.967 20.4874C123.48 21.6493 122.766 22.7026 121.868 23.586C121.547 23.902 121.292 24.2787 121.118 24.6943C120.944 25.1099 120.854 25.5559 120.854 26.0065C120.854 26.4571 120.944 26.9031 121.118 27.3187C121.292 27.7343 121.547 28.111 121.868 28.427C122.521 29.0684 123.4 29.4278 124.315 29.4278C125.23 29.4278 126.108 29.0684 126.761 28.427C128.306 26.9164 129.534 25.1122 130.372 23.1205C131.21 21.1288 131.642 18.9897 131.641 16.8289C131.611 12.4507 129.845 8.26344 126.732 5.1851C123.618 2.10676 119.411 0.388617 115.033 0.407379ZM4.90948 5.18546C8.02265 2.10715 12.2294 0.388886 16.6075 0.407387C20.9855 0.388886 25.1923 2.10715 28.3055 5.18546C31.4186 8.26377 33.1841 12.4509 33.2149 16.8289C33.215 18.9896 32.7834 21.1285 31.9453 23.12C31.1073 25.1116 29.8797 26.9155 28.3348 28.426C27.682 29.0674 26.8035 29.4268 25.8883 29.4268C24.9732 29.4268 24.0946 29.0674 23.4419 28.426C23.1207 28.11 22.8656 27.7331 22.6914 27.3175C22.5173 26.9018 22.4276 26.4557 22.4276 26.005C22.4276 25.5544 22.5173 25.1083 22.6914 24.6926C22.8656 24.277 23.1207 23.9001 23.4419 23.584C24.3401 22.7006 25.0536 21.6473 25.5406 20.4853C26.0276 19.3234 26.2784 18.0761 26.2784 16.8162C26.2784 15.5563 26.0276 14.309 25.5406 13.1471C25.0536 11.9851 24.3401 10.9317 23.4419 10.0483C21.6161 8.25215 19.1574 7.24551 16.5962 7.24551C14.035 7.24551 11.5764 8.25215 9.75057 10.0483C8.85229 10.9317 8.13885 11.9851 7.65186 13.1471C7.16487 14.309 6.91406 15.5563 6.91406 16.8162C6.91406 18.0761 7.16487 19.3234 7.65186 20.4853C8.13885 21.6473 8.85229 22.7006 9.75057 23.584C10.0718 23.9001 10.3269 24.277 10.501 24.6926C10.6751 25.1083 10.7648 25.5544 10.7648 26.005C10.7648 26.4557 10.6751 26.9018 10.501 27.3175C10.3269 27.7331 10.0718 28.11 9.75057 28.426C9.09781 29.0674 8.21927 29.4268 7.30413 29.4268C6.38898 29.4268 5.51044 29.0674 4.85768 28.426C3.31679 26.9137 2.0934 25.1088 1.25925 23.1174C0.425102 21.1259 -0.00301213 18.988 1.59516e-05 16.8289C0.0308049 12.4509 1.79632 8.26377 4.90948 5.18546ZM54.9914 14.8989C55.0019 16.7883 53.4612 18.3286 51.5502 18.3391C49.6391 18.3497 48.0815 16.8266 48.071 14.9372C48.0606 13.0478 49.6013 11.5076 51.5123 11.497C53.4233 11.4865 54.981 13.0095 54.9914 14.8989Z" fill="url(#paint0_linear_593_411)"/>
<defs>
<linearGradient id="paint0_linear_593_411" x1="6.68997" y1="7.81473" x2="93.2524" y2="71.8189" gradientUnits="userSpaceOnUse">
<stop stop-color="#00A5F0"/>
<stop offset="1" stop-color="#00D7D7"/>
</linearGradient>
</defs>
</svg>
